<svg xmlns="http://www.w3.org/2000/svg" viewBox="0 0 180 180" fill="none" shape-rendering="auto"><mask id="viewboxMask"><rect width="180" height="180" rx="0" ry="0" x="0" y="0" fill="#fff" /></mask><g mask="url(#viewboxMask)"><g transform="translate(0 66)"><mask id="sidesSquare-a" style="mask-type:luminance" maskUnits="userSpaceOnUse" x="14" y="16" width="152" height="44"><g fill="#fff"><rect x="14" y="16" width="36" height="44" rx="9"/><rect x="130" y="16" width="36" height="44" rx="9"/></g></mask><g mask="url(#sidesSquare-a)"><path d="M0 0h180v76H0V0Z" fill="#fb8c00"/><path d="M0 0h180v76H0V0Z" fill="#fff" fill-opacity=".3"/><path fill="#000" fill-opacity=".1" d="M0 38h180v38H0z"/></g></g><g transform="translate(41)"><g><path fill-rule="evenodd" clip-rule="evenodd" d="M30 33a20 20 0 1 1 40 0v11H30V33Z" fill="#fff" fill-opacity=".3"/></g><ellipse cx="50" cy="30" rx="4" ry="6" fill="#fff" fill-opacity=".6"/><path d="M50 15.5c4.93 0 9.37 2.13 12.44 5.52m2.43 3.5c.7 1.3 1.21 2.73 1.53 4.23" stroke="#fff" stroke-width="2" stroke-linecap="round"/><rect x="20" y="36" width="60" height="16" rx="1" fill="#48494B"/><defs></defs></g><g transform="translate(25 44)"><mask id="faceSquare04-a" style="mask-type:luminance" maskUnits="userSpaceOnUse" x="0" y="0" width="130" height="120"><path fill-rule="evenodd" clip-rule="evenodd" d="M0 102V68.85a40 40 0 0 1 2.28-13.31L19.76 12A18 18 0 0 1 36.74 0h56.52a18 18 0 0 1 16.98 12l17.48 43.54A40 40 0 0 1 130 68.85V102a18 18 0 0 1-18 18H18a18 18 0 0 1-18-18Z" fill="#fff"/></mask><g mask="url(#faceSquare04-a)"><path d="M-2-2h134v124H-2V-2Z" fill="#fb8c00"/><g transform="translate(-1 -1)"></g></g></g><g transform="translate(52 124)"><rect x="4" y="4" width="68" height="24" rx="5" fill="#000" fill-opacity=".2"/><rect x="8" y="8" width="60" height="16" rx="2" fill="#000" fill-opacity=".8"/><path d="M9 17h11l2-4 3 7 4-8 2 9 3-11 3 10 3-3h15l3-4 2 7 3-3h4" stroke="#4EFAC9" stroke-width="2" stroke-linecap="round" stroke-linejoin="round"/></g><g transform="translate(38 76)"><circle cx="28" cy="24" r="18" fill="#000" fill-opacity=".2"/><circle cx="74" cy="24" r="18" fill="#000" fill-opacity=".2"/><circle cx="28" cy="24" r="15" fill="#F1EEDA"/><circle cx="74" cy="24" r="15" fill="#F1EEDA"/><rect x="26" y="15" width="10" height="10" rx="2" fill="#000" fill-opacity=".8"/><rect x="74" y="15" width="10" height="10" rx="2" fill="#000" fill-opacity=".8"/></g></g></svg>