<svg xmlns="http://www.w3.org/2000/svg" viewBox="0 0 180 180" fill="none" shape-rendering="auto"><mask id="viewboxMask"><rect width="180" height="180" rx="0" ry="0" x="0" y="0" fill="#fff" /></mask><g mask="url(#viewboxMask)"><g transform="translate(0 66)"><mask id="sidesAntenna02-a" style="mask-type:luminance" maskUnits="userSpaceOnUse" x="10" y="9" width="160" height="51"><g fill="#fff"><rect x="10" y="28" width="36" height="32" rx="4"/><path d="M160 9h2v20h-2z"/><rect x="134" y="28" width="36" height="32" rx="4"/></g></mask><g mask="url(#sidesAntenna02-a)"><path d="M0 0h180v76H0V0Z" fill="#039be5"/><path d="M0 0h180v76H0V0Z" fill="#fff" fill-opacity=".3"/><path fill="#000" fill-opacity=".1" d="M0 38h180v38H0z"/></g><path fill="#fff" fill-opacity=".4" d="M160 8h2v20h-2z"/><circle cx="161" cy="5" r="4" fill="#E1E6E8"/><circle cx="162" cy="4" r="2" fill="#fff"/></g><g transform="translate(41)"><mask id="topRadar-a" style="mask-type:luminance" maskUnits="userSpaceOnUse" x="37" y="0" width="36" height="53"><g fill="#fff"><path fill-rule="evenodd" clip-rule="evenodd" d="M43.8.11A20 20 0 1 0 72.08 28.4"/><circle cx="67.13" cy="5.06" r="4" transform="rotate(45 67.13 5.06)"/><path transform="rotate(45 64.3 6.48)" d="M64.31 6.48h2v26h-2z"/><path d="M47.94 28.11h4v24h-4z"/></g></mask><g mask="url(#topRadar-a)"><path d="M0 0h100v52H0V0Z" fill="#90A4AE"/><path d="M0 0h100v52H0V0Z" fill="#fff" fill-opacity=".3"/><path fill-rule="evenodd" clip-rule="evenodd" d="M43.8.11A20 20 0 1 0 72.08 28.4" fill="#fff" fill-opacity=".2"/><circle cx="67.13" cy="7.41" r="5.66" transform="rotate(45 67.13 7.4)" fill="#fff" fill-opacity=".8"/></g></g><g transform="translate(25 44)"><mask id="faceSquare04-a" style="mask-type:luminance" maskUnits="userSpaceOnUse" x="0" y="0" width="130" height="120"><path fill-rule="evenodd" clip-rule="evenodd" d="M0 102V68.85a40 40 0 0 1 2.28-13.31L19.76 12A18 18 0 0 1 36.74 0h56.52a18 18 0 0 1 16.98 12l17.48 43.54A40 40 0 0 1 130 68.85V102a18 18 0 0 1-18 18H18a18 18 0 0 1-18-18Z" fill="#fff"/></mask><g mask="url(#faceSquare04-a)"><path d="M-2-2h134v124H-2V-2Z" fill="#039be5"/><g transform="translate(-1 -1)"></g></g></g><g transform="translate(52 124)"><rect x="4" y="5" width="68" height="22" rx="5" fill="#000" fill-opacity=".2"/><rect x="8" y="9" width="60" height="14" rx="2" fill="#fff"/><path fill="#000" fill-opacity=".1" d="M18 9h4v14h-4zM42 9h4v14h-4zM30 9h4v14h-4zM54 9h4v14h-4z"/></g><g transform="translate(38 76)"><rect y="4" width="104" height="42" rx="4" fill="#000" fill-opacity=".8"/><rect x="28" y="25" width="10" height="11" rx="2" fill="#8BDDFF"/><rect x="66" y="25" width="10" height="11" rx="2" fill="#8BDDFF"/><path fill-rule="evenodd" clip-rule="evenodd" d="M21 4h8L12 46H4L21 4Z" fill="#fff" fill-opacity=".4"/></g></g></svg>