<svg xmlns="http://www.w3.org/2000/svg" viewBox="0 0 180 180" fill="none" shape-rendering="auto"><mask id="viewboxMask"><rect width="180" height="180" rx="0" ry="0" x="0" y="0" fill="#fff" /></mask><g mask="url(#viewboxMask)"><g transform="translate(0 66)"><path d="M38 12c-2.95 11.7-19.9 6.67-23.37 18-3.46 11.35 8.03 20 17.53 20" stroke="#2A3544" stroke-width="6" opacity=".9"/><path d="M150 55c8.4 3.49 20.1-7.6 16-16.5-4.1-8.9-16-6.7-16-19.3" stroke="#2A3544" stroke-width="4" opacity=".9"/><mask id="sidesCables01-a" style="mask-type:luminance" maskUnits="userSpaceOnUse" x="21" y="6" width="138" height="58"><g fill="#fff"><rect x="21" y="35" width="16" height="22" rx="2"/><rect x="136" y="42" width="23" height="22" rx="2"/><rect x="136" y="6" width="23" height="18" rx="2"/></g></mask><g mask="url(#sidesCables01-a)"><path d="M0 0h180v76H0V0Z" fill="#c0ca33"/><path d="M0 0h180v76H0V0Z" fill="#fff" fill-opacity=".3"/></g></g><g transform="translate(41)"><mask id="topLights-a" style="mask-type:luminance" maskUnits="userSpaceOnUse" x="10" y="22" width="80" height="30"><g fill="#fff"><path d="M10 42c0-1.1.9-2 2-2h76a2 2 0 0 1 2 2v10H10V42Z"/><path d="M18 27a5 5 0 0 1 5-5h6a5 5 0 0 1 5 5v25H18V27ZM42 27a5 5 0 0 1 5-5h6a5 5 0 0 1 5 5v25H42V27ZM66 27a5 5 0 0 1 5-5h6a5 5 0 0 1 5 5v25H66V27Z"/></g></mask><g mask="url(#topLights-a)"><path d="M0 0h100v52H0V0Z" fill="#c0ca33"/><path d="M0 0h100v52H0V0Z" fill="#fff" fill-opacity=".3"/><path fill="#fff" fill-opacity=".6" d="M0 0h100v40H0z"/><rect x="24" y="28" width="4" height="8" rx="2" fill="#fff" fill-opacity=".6"/><rect x="48" y="28" width="4" height="8" rx="2" fill="#fff" fill-opacity=".6"/><rect x="72" y="28" width="4" height="8" rx="2" fill="#fff" fill-opacity=".6"/></g></g><g transform="translate(25 44)"><mask id="faceSquare01-a" style="mask-type:luminance" maskUnits="userSpaceOnUse" x="0" y="0" width="130" height="120"><rect width="130" height="120" rx="18" fill="#fff"/></mask><g mask="url(#faceSquare01-a)"><path d="M-2-2h134v124H-2V-2Z" fill="#c0ca33"/><g transform="translate(-1 -1)"></g></g></g><g transform="translate(52 124)"><g fill="#000" fill-opacity=".6"><rect x="12" y="12" width="4" height="8" rx="2"/><rect x="36" y="12" width="4" height="8" rx="2"/><rect x="24" y="12" width="4" height="8" rx="2"/><rect x="48" y="12" width="4" height="8" rx="2"/><rect x="60" y="12" width="4" height="8" rx="2"/></g></g><g transform="translate(38 76)"><path d="m18 19 12-2M20 31c0-3.31 2.9-6 7-6 3.1 0 6 2.69 6 6M86 20l-12-3M84 31c0-3.31-2.9-6-6-6-4.1 0-7 2.69-7 6" stroke="#000" stroke-width="4" stroke-linecap="round" stroke-linejoin="round"/></g></g></svg>